<svg width="230" height="230" viewBox="0 0 230 230" fill="none" xmlns="http://www.w3.org/2000/svg">
<path d="M230 0H0V230H230V0Z" fill="white"/>
<path d="M23.6667 98.5001H13V109.167H23.6667V98.5001Z" fill="#3886CD"/>
<path d="M55.6667 98.5001H45V109.167H55.6667V98.5001Z" fill="#3886CD"/>
<path d="M34.3334 109.167H23.6667V119.833H34.3334V109.167Z" fill="#3886CD"/>
<path d="M55.6667 109.167H45V119.833H55.6667V109.167Z" fill="#3886CD"/>
<path d="M77 109.167H66.3334V119.833H77V109.167Z" fill="#3886CD"/>
<path d="M23.6667 119.833H13V130.5H23.6667V119.833Z" fill="#3886CD"/>
<path d="M34.3334 119.833H23.6667V130.5H34.3334V119.833Z" fill="#3886CD"/>
<path d="M55.6667 119.833H45V130.5H55.6667V119.833Z" fill="#3886CD"/>
<path d="M110.333 174.333H99.6667V185H110.333V174.333Z" fill="#3886CD"/>
<path d="M121 185H110.333V195.667H121V185Z" fill="#3886CD"/>
<path d="M110.333 195.667H99.6667V206.333H110.333V195.667Z" fill="#3886CD"/>
<path d="M121 195.667H110.333V206.333H121V195.667Z" fill="#3886CD"/>
<path d="M121 163.667H110.333V174.333H121V163.667Z" fill="#3886CD"/>
<path d="M110.333 66.3334H99.6667V77.0001H110.333V66.3334Z" fill="#3886CD"/>
<path d="M110.333 55.6667H99.6667V66.3334H110.333V55.6667Z" fill="#3886CD"/>
<path d="M121 45H110.333V55.6667H121V45Z" fill="#3886CD"/>
<path d="M121 34.3334H110.333V45H121V34.3334Z" fill="#3886CD"/>
<path d="M131.667 23.6667H121V34.3334H131.667V23.6667Z" fill="#3886CD"/>
<path d="M131.667 13H121V23.6667H131.667V13Z" fill="#3886CD"/>
<path d="M121 13L110.333 13V23.6667L121 23.6667V13Z" fill="#3886CD"/>
<path fill-rule="evenodd" clip-rule="evenodd" d="M13 13H88V88H13V13ZM29 28H73V73H29V28Z" fill="#3886CD"/>
<path fill-rule="evenodd" clip-rule="evenodd" d="M142 13H217V88H142V13ZM158 28H202V73H158V28Z" fill="#3886CD"/>
<path fill-rule="evenodd" clip-rule="evenodd" d="M13 142H88V217H13V142ZM29 157H73V202H29V157Z" fill="#3886CD"/>
<path fill-rule="evenodd" clip-rule="evenodd" d="M140.5 140.5H195.5V195.5H140.5V140.5ZM156.5 155.5H180.5V180.5H156.5V155.5Z" fill="#3886CD"/>
<path d="M217 206.333H206.333V217H217V206.333Z" fill="#3886CD"/>
<path d="M206 206.333H195.333V217H206V206.333Z" fill="#3886CD"/>
<path d="M195 206.333H184.333V217H195V206.333Z" fill="#3886CD"/>
<path d="M184 206.333H173.333V217H184V206.333Z" fill="#3886CD"/>
<path d="M217 195.333H206.333V206H217V195.333Z" fill="#3886CD"/>
<path d="M217 184.333H206.333V195H217V184.333Z" fill="#3886CD"/>
<path d="M217 163.667H206.333V174.333H217V163.667Z" fill="#3886CD"/>
<path d="M217 153H206.333V163.667H217V153Z" fill="#3886CD"/>
<path d="M184.833 98.5001H174.167V109.167H184.833V98.5001Z" fill="#3886CD"/>
<path d="M195.5 109.167H184.833V119.833H195.5V109.167Z" fill="#3886CD"/>
<path d="M184.833 119.833H174.167V130.5H184.833V119.833Z" fill="#3886CD"/>
<path d="M195.5 119.833H184.833V130.5H195.5V119.833Z" fill="#3886CD"/>
<path d="M217 109.167H206.333V119.833H217V109.167Z" fill="#3886CD"/>
<path d="M206.167 98.5001H195.5V109.167H206.167V98.5001Z" fill="#3886CD"/>
<path d="M184.833 45H174.167V55.6667H184.833V45Z" fill="#3886CD"/>
<path d="M55.6667 45H45V55.6667H55.6667V45Z" fill="#3886CD"/>
<path d="M55.6667 173.667H45V184.333H55.6667V173.667Z" fill="#3886CD"/>
<circle cx="115.5" cy="114.5" r="67.5" fill="#F6CE58"/>
<path d="M75 127.045L114.6 62V102.955H153L114.6 168V127.045H75Z" fill="#3A3A3A"/>
</svg>
