<svg width="230" height="230" viewBox="0 0 230 230" fill="none" xmlns="http://www.w3.org/2000/svg">
<path d="M230 0H0V230H230V0Z" fill="white"/>
<path d="M174.333 142.333H163.667V153H174.333V142.333Z" fill="#3886CD"/>
<path d="M185 142.333H174.333V153H185V142.333Z" fill="#3886CD"/>
<path d="M195.667 142.333H185V153H195.667V142.333Z" fill="#3886CD"/>
<path d="M153 153H142.333V163.667H153V153Z" fill="#3886CD"/>
<path d="M206.333 153H195.667V163.667H206.333V153Z" fill="#3886CD"/>
<path d="M163.667 163.667H153V174.333H163.667V163.667Z" fill="#3886CD"/>
<path d="M174.333 163.667H163.667V174.333H174.333V163.667Z" fill="#3886CD"/>
<path d="M185 163.667H174.333V174.333H185V163.667Z" fill="#3886CD"/>
<path d="M217 163.667H206.333V174.333H217V163.667Z" fill="#3886CD"/>
<path d="M153 174.333H142.333V185H153V174.333Z" fill="#3886CD"/>
<path d="M185 174.333H174.333V185H185V174.333Z" fill="#3886CD"/>
<path d="M163.667 185H153V195.667H163.667V185Z" fill="#3886CD"/>
<path d="M185 185H174.333V195.667H185V185Z" fill="#3886CD"/>
<path d="M206.667 185H195.667V195.667H206.667V185Z" fill="#3886CD"/>
<path d="M153 195.667H142.333V206.333H153V195.667Z" fill="#3886CD"/>
<path d="M163.667 195.667H153V206.333H163.667V195.667Z" fill="#3886CD"/>
<path d="M185 195.667H174.333V206.333H185V195.667Z" fill="#3886CD"/>
<path d="M174.333 206.333H163.667V217H174.333V206.333Z" fill="#3886CD"/>
<path d="M206.667 206.333H185V217H206.667V206.333Z" fill="#3886CD"/>
<path d="M23.6667 98.5001H13V109.167H23.6667V98.5001Z" fill="#3886CD"/>
<path d="M55.6667 98.5001H45V109.167H55.6667V98.5001Z" fill="#3886CD"/>
<path d="M34.3333 109.167H23.6667V119.833H34.3333V109.167Z" fill="#3886CD"/>
<path d="M55.6667 109.167H45V119.833H55.6667V109.167Z" fill="#3886CD"/>
<path d="M77 109.167H66.3333V119.833H77V109.167Z" fill="#3886CD"/>
<path d="M23.6667 119.833H13V130.5H23.6667V119.833Z" fill="#3886CD"/>
<path d="M34.3333 119.833H23.6667V130.5H34.3333V119.833Z" fill="#3886CD"/>
<path d="M55.6667 119.833H45V130.5H55.6667V119.833Z" fill="#3886CD"/>
<path d="M163.667 98.5001H153V109.167H163.667V98.5001Z" fill="#3886CD"/>
<path d="M195.667 98.5001H185V109.167H195.667V98.5001Z" fill="#3886CD"/>
<path d="M174.333 109.167H163.667V119.833H174.333V109.167Z" fill="#3886CD"/>
<path d="M195.667 109.167H185V119.833H195.667V109.167Z" fill="#3886CD"/>
<path d="M217 109.167H206.333V119.833H217V109.167Z" fill="#3886CD"/>
<path d="M163.667 119.833H153V130.5H163.667V119.833Z" fill="#3886CD"/>
<path d="M174.333 119.833H163.667V130.5H174.333V119.833Z" fill="#3886CD"/>
<path d="M195.667 119.833H185V130.5H195.667V119.833Z" fill="#3886CD"/>
<path d="M110.333 174.333H99.6667V185H110.333V174.333Z" fill="#3886CD"/>
<path d="M142.333 174.333H131.667V185H142.333V174.333Z" fill="#3886CD"/>
<path d="M121 185H110.333V195.667H121V185Z" fill="#3886CD"/>
<path d="M142.333 185H131.667V195.667H142.333V185Z" fill="#3886CD"/>
<path d="M110.333 195.667H99.6667V206.333H110.333V195.667Z" fill="#3886CD"/>
<path d="M121 195.667H110.333V206.333H121V195.667Z" fill="#3886CD"/>
<path d="M142.333 195.667H131.667V206.333H142.333V195.667Z" fill="#3886CD"/>
<path d="M121 163.667H110.333V174.333H121V163.667Z" fill="#3886CD"/>
<path d="M110.333 66.3334H99.6667V77.0001H110.333V66.3334Z" fill="#3886CD"/>
<path d="M110.333 55.6667H99.6667V66.3334H110.333V55.6667Z" fill="#3886CD"/>
<path d="M121 45H110.333V55.6667H121V45Z" fill="#3886CD"/>
<path d="M121 34.3334H110.333V45H121V34.3334Z" fill="#3886CD"/>
<path d="M131.667 23.6667H121V34.3334H131.667V23.6667Z" fill="#3886CD"/>
<path d="M131.667 13H121V23.6667H131.667V13Z" fill="#3886CD"/>
<path d="M121 13L110.333 13V23.6667L121 23.6667V13Z" fill="#3886CD"/>
<path d="M67 34H34V67H67V34Z" fill="#3886CD"/>
<path fill-rule="evenodd" clip-rule="evenodd" d="M13 13H88V88H13V13ZM23 22H79V79H23V22Z" fill="#3886CD"/>
<path d="M67 163H34V196H67V163Z" fill="#3886CD"/>
<path fill-rule="evenodd" clip-rule="evenodd" d="M13 142H88V217H13V142ZM23 151H79V208H23V151Z" fill="#3886CD"/>
<path d="M196 34H163V67H196V34Z" fill="#3886CD"/>
<path fill-rule="evenodd" clip-rule="evenodd" d="M142 13H217V88H142V13ZM152 22H208V79H152V22Z" fill="#3886CD"/>
<path d="M195.667 153H153V163.667H195.667V153Z" fill="#3886CD"/>
<path d="M217.333 217H206.667V185H217.333V217Z" fill="#3886CD"/>
<circle cx="115.5" cy="114.5" r="38.5" fill="#F6CE58"/>
<path d="M98 120L114.5 93V110H130.5L114.5 137V120H98Z" fill="#3A3A3A"/>
</svg>
